<?xml version="1.0" encoding="utf-8"?>
<!-- Generator: Adobe Illustrator 16.0.0, SVG Export Plug-In . SVG Version: 6.00 Build 0)  -->
<!DOCTYPE svg PUBLIC "-//W3C//DTD SVG 1.1//EN" "http://www.w3.org/Graphics/SVG/1.1/DTD/svg11.dtd">
<svg version="1.1" id="Layer_1" xmlns="http://www.w3.org/2000/svg" xmlns:xlink="http://www.w3.org/1999/xlink" x="0px" y="0px"
	 width="106px" height="158.25px" viewBox="0 0 106 158.25" enable-background="new 0 0 106 158.25" xml:space="preserve">
<g>
	<g>
		<path fill="#1797A6" d="M73.87,126.356H20c-3.859,0-7-3.141-7-7V20.497c0-3.859,3.141-7,7-7h71c3.859,0,7,3.141,7,7v34.22
			c0,1.104-0.896,2-2,2s-2-0.896-2-2v-34.22c0-1.654-1.346-3-3-3H20c-1.654,0-3,1.346-3,3v98.859c0,1.654,1.346,3,3,3h53.87
			c1.104,0,2,0.896,2,2S74.975,126.356,73.87,126.356z"/>
	</g>
	<g>
		<path fill="#1797A6" d="M91,126.356h-4.37c-1.104,0-2-0.896-2-2s0.896-2,2-2H91c1.654,0,3-1.346,3-3v-29.08c0-1.104,0.896-2,2-2
			s2,0.896,2,2v29.08C98,123.216,94.859,126.356,91,126.356z"/>
	</g>
	<g>
		<path fill="#1797A6" d="M7,112.856c-3.859,0-7-3.141-7-7V7c0-3.859,3.141-7,7-7h71c3.859,0,7,3.141,7,7c0,1.104-0.896,2-2,2
			s-2-0.896-2-2c0-1.654-1.346-3-3-3H7C5.346,4,4,5.346,4,7v98.856c0,1.654,1.346,3,3,3c1.104,0,2,0.896,2,2
			S8.104,112.856,7,112.856z"/>
	</g>
	<g>
		<path fill="#1797A6" d="M80.25,98.25c-14.198,0-25.75-11.552-25.75-25.75s11.552-25.75,25.75-25.75S106,58.302,106,72.5
			S94.448,98.25,80.25,98.25z M80.25,50.75c-11.993,0-21.75,9.757-21.75,21.75s9.757,21.75,21.75,21.75S102,84.493,102,72.5
			S92.243,50.75,80.25,50.75z"/>
	</g>
	<g>
		<path fill="#1797A6" d="M74,29H28.25c-1.104,0-2-0.896-2-2s0.896-2,2-2H74c1.104,0,2,0.896,2,2S75.104,29,74,29z"/>
	</g>
	<g>
		<path fill="#1797A6" d="M60.75,47.75h-32.5c-1.104,0-2-0.896-2-2s0.896-2,2-2h32.5c1.104,0,2,0.896,2,2S61.854,47.75,60.75,47.75z
			"/>
	</g>
	<g>
		<path fill="#1797A6" d="M83,38.375H28.25c-1.104,0-2-0.896-2-2s0.896-2,2-2H83c1.104,0,2,0.896,2,2S84.104,38.375,83,38.375z"/>
	</g>
	<g>
		<path fill="#1797A6" d="M28.248,112.856c-0.934,0-1.769-0.656-1.959-1.606c-0.217-1.083,0.484-2.138,1.567-2.354l10.766-2.159
			l4.07-8.593c0.268-0.564,0.783-0.971,1.394-1.101l12.275-2.597l1.586-2.074c0.669-0.876,1.924-1.048,2.804-0.374
			c0.877,0.671,1.045,1.926,0.374,2.804l-2.036,2.663c-0.29,0.38-0.707,0.643-1.175,0.742l-12.03,2.545l-4.076,8.604
			c-0.271,0.57-0.795,0.98-1.414,1.104l-11.75,2.356C28.511,112.844,28.378,112.856,28.248,112.856z"/>
	</g>
	<g>
		<path fill="#1797A6" d="M65.744,83.363c-0.32,0-0.645-0.077-0.946-0.239c-0.973-0.524-1.336-1.737-0.812-2.709l1.004-1.863
			c0.349-0.648,1.025-1.052,1.761-1.052h8.066l6.431-11.713c0.53-0.968,1.746-1.324,2.716-0.79c0.968,0.531,1.322,1.747,0.79,2.716
			l-7,12.75C77.402,81.103,76.729,81.5,76,81.5h-8.056l-0.438,0.812C67.146,82.982,66.456,83.363,65.744,83.363z"/>
	</g>
	<g>
		<path fill="#1797A6" d="M81.625,158.25h-2.75c-3.859,0-7-3.141-7-7V111.5c0-3.859,3.141-7,7-7h2.75c3.859,0,7,3.141,7,7v39.75
			C88.625,155.109,85.484,158.25,81.625,158.25z M78.875,108.5c-1.654,0-3,1.346-3,3v39.75c0,1.654,1.346,3,3,3h2.75
			c1.654,0,3-1.346,3-3V111.5c0-1.654-1.346-3-3-3H78.875z"/>
	</g>
	<g>
		<path fill="#1797A6" d="M80.25,108.5c-1.104,0-2-0.896-2-2V96.25c0-1.104,0.896-2,2-2s2,0.896,2,2v10.25
			C82.25,107.604,81.354,108.5,80.25,108.5z"/>
	</g>
</g>
</svg>
