<?xml version="1.0" encoding="utf-8"?>
<!-- Generator: Adobe Illustrator 16.0.0, SVG Export Plug-In . SVG Version: 6.00 Build 0)  -->
<!DOCTYPE svg PUBLIC "-//W3C//DTD SVG 1.1//EN" "http://www.w3.org/Graphics/SVG/1.1/DTD/svg11.dtd">
<svg version="1.1" id="Layer_1" xmlns="http://www.w3.org/2000/svg" xmlns:xlink="http://www.w3.org/1999/xlink" x="0px" y="0px"
	 width="142.5px" height="125.667px" viewBox="0 0 142.5 125.667" enable-background="new 0 0 142.5 125.667" xml:space="preserve">
<g>
	<g>
		<path fill="#1797A6" d="M130.5,95.5H12c-6.617,0-12-5.383-12-12V12C0,5.383,5.383,0,12,0h118.5c6.617,0,12,5.383,12,12v71.5
			C142.5,90.117,137.117,95.5,130.5,95.5z M12,4c-4.411,0-8,3.589-8,8v71.5c0,4.411,3.589,8,8,8h118.5c4.411,0,8-3.589,8-8V12
			c0-4.411-3.589-8-8-8H12z"/>
	</g>
	<g>
		<path fill="#1797A6" d="M53.084,74.001c-0.031,0-0.062-0.001-0.092-0.002c-0.836-0.038-1.56-0.592-1.814-1.389l-11.39-35.632
			l-7.54,17.16c-0.319,0.727-1.037,1.195-1.831,1.195H21.75c-1.104,0-2-0.896-2-2s0.896-2,2-2h7.361l9.141-20.805
			c0.335-0.761,1.108-1.244,1.936-1.192c0.83,0.043,1.547,0.596,1.801,1.388L53.345,66.25l12.563-29.695
			c0.31-0.731,1.022-1.21,1.816-1.221c0.808-0.009,1.519,0.45,1.847,1.174l11.151,24.591l17.864-40.57
			c0.337-0.768,1.117-1.249,1.951-1.19c0.836,0.051,1.552,0.616,1.794,1.418l9.236,30.578h9.182c1.104,0,2,0.896,2,2s-0.896,2-2,2
			h-10.667c-0.882,0-1.659-0.577-1.915-1.422l-8.101-26.82L82.58,66.807c-0.317,0.723-1.03,1.19-1.819,1.194
			c-0.004,0-0.007,0-0.011,0c-0.785,0-1.497-0.459-1.821-1.174L67.813,42.316L54.925,72.78
			C54.611,73.522,53.884,74.001,53.084,74.001z"/>
	</g>
	<g>
		<path fill="#1797A6" d="M100.083,125.667H42.417c-1.104,0-2-0.896-2-2s0.896-2,2-2h57.666c1.104,0,2,0.896,2,2
			S101.188,125.667,100.083,125.667z"/>
	</g>
	<g>
		<g>
			<path fill="#1797A6" d="M85.768,125.667c-1.016,0-1.885-0.77-1.988-1.801l-2.332-23.333c-0.109-1.1,0.692-2.079,1.791-2.189
				c1.104-0.112,2.08,0.692,2.189,1.791l2.332,23.333c0.109,1.1-0.692,2.079-1.791,2.189
				C85.901,125.664,85.834,125.667,85.768,125.667z"/>
		</g>
		<g>
			<path fill="#1797A6" d="M56.732,125.667c-0.066,0-0.133-0.003-0.201-0.01c-1.099-0.11-1.9-1.09-1.791-2.189l2.332-23.333
				c0.11-1.099,1.077-1.904,2.189-1.791c1.099,0.11,1.9,1.09,1.791,2.189l-2.332,23.333
				C58.617,124.897,57.748,125.667,56.732,125.667z"/>
		</g>
	</g>
</g>
</svg>
