<?xml version="1.0" encoding="utf-8"?>
<!-- Generator: Adobe Illustrator 16.0.0, SVG Export Plug-In . SVG Version: 6.00 Build 0)  -->
<!DOCTYPE svg PUBLIC "-//W3C//DTD SVG 1.1//EN" "http://www.w3.org/Graphics/SVG/1.1/DTD/svg11.dtd">
<svg version="1.1" id="Layer_1" xmlns="http://www.w3.org/2000/svg" xmlns:xlink="http://www.w3.org/1999/xlink" x="0px" y="0px"
	 width="122.5px" height="107.334px" viewBox="0 0 122.5 107.334" enable-background="new 0 0 122.5 107.334" xml:space="preserve">
<g>
	<g>
		<path fill="#1797A6" d="M110.5,107.334H12c-6.617,0-12-5.383-12-12v-64c0-6.617,5.383-12,12-12h7.58c1.104,0,2,0.896,2,2
			s-0.896,2-2,2H12c-4.411,0-8,3.589-8,8v64c0,4.411,3.589,8,8,8h98.5c4.411,0,8-3.589,8-8v-64c0-4.411-3.589-8-8-8h-32
			c-1.104,0-2-0.896-2-2s0.896-2,2-2h32c6.617,0,12,5.383,12,12v64C122.5,101.951,117.117,107.334,110.5,107.334z"/>
	</g>
	<g>
		<path fill="none" stroke="#1797A6" stroke-width="4" stroke-linecap="round" stroke-linejoin="round" stroke-miterlimit="10" d="
			M78.5,21.334"/>
	</g>
	<g>
		<path fill="#1797A6" d="M44.834,23.334H35.27c-1.104,0-2-0.896-2-2s0.896-2,2-2h9.564c1.104,0,2,0.896,2,2
			S45.938,23.334,44.834,23.334z"/>
	</g>
	<g>
		<g>
			<path fill="#1797A6" d="M34.354,23.334h-15.69c-0.849,0-1.604-0.535-1.887-1.335c-0.261-0.74-0.393-1.516-0.393-2.305v-5
				c0-3.859,3.141-7,7-7h6.25c3.859,0,7,3.141,7,7v5c0,0.791-0.133,1.568-0.396,2.308C35.957,22.801,35.201,23.334,34.354,23.334z
				 M20.385,19.334h12.25v-4.64c0-1.654-1.346-3-3-3h-6.25c-1.654,0-3,1.346-3,3V19.334z"/>
		</g>
		<g>
			<path fill="#1797A6" d="M103.836,23.334H88.146c-0.847,0-1.603-0.533-1.885-1.332c-0.264-0.741-0.396-1.518-0.396-2.308v-5
				c0-3.859,3.141-7,7-7h6.25c3.859,0,7,3.141,7,7v5c0,0.789-0.132,1.564-0.393,2.305C105.44,22.799,104.685,23.334,103.836,23.334z
				 M89.865,19.334h12.25v-4.64c0-1.654-1.346-3-3-3h-6.25c-1.654,0-3,1.346-3,3V19.334z"/>
		</g>
	</g>
	<g>
		<path fill="#1797A6" d="M42.635,65.334h-32.5c-1.104,0-2-0.896-2-2s0.896-2,2-2h32.5c1.104,0,2,0.896,2,2
			S43.739,65.334,42.635,65.334z"/>
	</g>
	<g>
		<g>
			<path fill="#1797A6" d="M112.24,65.334h-32.5c-1.104,0-2-0.896-2-2s0.896-2,2-2h32.5c1.104,0,2,0.896,2,2
				S113.345,65.334,112.24,65.334z"/>
		</g>
		<g>
			<path fill="#1797A6" d="M95.99,81.584c-1.104,0-2-0.896-2-2v-32.5c0-1.104,0.896-2,2-2s2,0.896,2,2v32.5
				C97.99,80.688,97.095,81.584,95.99,81.584z"/>
		</g>
	</g>
	<g>
		<path fill="#1797A6" d="M56.583,46c-0.195,0-0.393-0.028-0.587-0.088c-0.875-0.269-1.455-1.097-1.411-2.01L55.316,29h-6.233
			c-0.631,0-1.224-0.297-1.602-0.802s-0.495-1.158-0.317-1.764l7.167-24.333c0.071-0.24,0.184-0.458,0.327-0.646
			C54.896,0.615,55.667,0,56.583,0h10.834c0.633,0,1.229,0.3,1.605,0.808c0.378,0.509,0.492,1.165,0.309,1.771l-3.554,11.755h7.64
			c0.723,0,1.39,0.39,1.743,1.02c0.354,0.631,0.341,1.402-0.034,2.021L58.292,45.04C57.922,45.647,57.268,46,56.583,46z M51.757,25
			h5.66c0.548,0,1.071,0.225,1.448,0.621c0.378,0.396,0.576,0.93,0.55,1.477l-0.448,9.138l10.893-17.901h-6.776
			c-0.633,0-1.229-0.3-1.605-0.808c-0.378-0.509-0.492-1.165-0.309-1.771L64.723,4h-6.78L51.757,25z"/>
	</g>
</g>
</svg>
