<?xml version="1.0" encoding="utf-8"?>
<!-- Generator: Adobe Illustrator 16.0.0, SVG Export Plug-In . SVG Version: 6.00 Build 0)  -->
<!DOCTYPE svg PUBLIC "-//W3C//DTD SVG 1.1//EN" "http://www.w3.org/Graphics/SVG/1.1/DTD/svg11.dtd">
<svg version="1.1" id="Layer_1" xmlns="http://www.w3.org/2000/svg" xmlns:xlink="http://www.w3.org/1999/xlink" x="0px" y="0px"
	 width="122.108px" height="122.108px" viewBox="0 0 122.108 122.108" enable-background="new 0 0 122.108 122.108"
	 xml:space="preserve">
<g>
	<g>
		<g>
			<g>
				<path fill="#1797A6" d="M84.428,25.63c-0.383,0-0.77-0.109-1.111-0.339c-21.351-14.312-43.134-0.574-44.05,0.018
					c-0.929,0.6-2.165,0.335-2.765-0.593c-0.6-0.927-0.337-2.163,0.589-2.764c0.247-0.16,24.879-15.786,48.452,0.017
					c0.918,0.615,1.163,1.857,0.548,2.774C85.705,25.319,85.072,25.63,84.428,25.63z"/>
			</g>
			<g>
				<path fill="#1797A6" d="M31.432,12.38c-0.66,0-1.306-0.326-1.688-0.924c-0.595-0.931-0.322-2.167,0.609-2.762
					c0.309-0.196,31.179-19.466,61.409,0.004c0.929,0.599,1.196,1.836,0.599,2.765c-0.599,0.929-1.836,1.197-2.765,0.599
					C61.5-6.035,32.794,11.882,32.506,12.065C32.173,12.278,31.8,12.38,31.432,12.38z"/>
			</g>
		</g>
		<g>
			<g>
				<path fill="#1797A6" d="M62.436,107.203c-14.242,0-25.181-6.94-25.345-7.047c-0.927-0.602-1.19-1.84-0.589-2.767
					c0.601-0.925,1.837-1.191,2.765-0.59c0.925,0.597,22.703,14.326,44.05,0.018c0.917-0.616,2.159-0.37,2.774,0.548
					c0.615,0.917,0.37,2.159-0.548,2.774C77.642,105.437,69.617,107.203,62.436,107.203z"/>
			</g>
			<g>
				<path fill="#1797A6" d="M62.334,122.108c-18.06,0-31.775-8.563-31.98-8.694c-0.931-0.594-1.203-1.829-0.609-2.76
					c0.593-0.931,1.828-1.206,2.761-0.612c0.286,0.182,29.055,18.063,57.092,0.005c0.929-0.597,2.167-0.33,2.765,0.599
					s0.33,2.166-0.599,2.765C81.636,119.933,71.432,122.108,62.334,122.108z"/>
			</g>
		</g>
	</g>
	<g>
		<g>
			<g>
				<path fill="#1797A6" d="M98.477,86.43c-0.383,0-0.77-0.109-1.111-0.339c-0.918-0.615-1.163-1.857-0.548-2.774
					c14.312-21.35,0.574-43.133-0.018-44.05c-0.599-0.928-0.334-2.165,0.593-2.765c0.926-0.6,2.162-0.338,2.764,0.589
					c0.159,0.246,15.785,24.88-0.017,48.452C99.754,86.119,99.121,86.43,98.477,86.43z"/>
			</g>
			<g>
				<path fill="#1797A6" d="M111.727,92.68c-0.371,0-0.746-0.103-1.081-0.318c-0.929-0.599-1.196-1.836-0.599-2.765
					c18.097-28.097,0.179-56.804-0.004-57.091c-0.595-0.931-0.322-2.167,0.609-2.762s2.167-0.321,2.762,0.609
					c0.197,0.308,19.465,31.181-0.004,61.409C113.027,92.356,112.384,92.68,111.727,92.68z"/>
			</g>
		</g>
		<g>
			<g>
				<path fill="#1797A6" d="M23.632,86.43c-0.645,0-1.277-0.311-1.663-0.887c-15.802-23.572-0.176-48.206-0.017-48.452
					c0.601-0.926,1.838-1.19,2.767-0.589c0.926,0.601,1.189,1.839,0.59,2.766c-0.6,0.929-14.324,22.705-0.018,44.049
					c0.615,0.917,0.37,2.159-0.548,2.774C24.401,86.32,24.015,86.43,23.632,86.43z"/>
			</g>
			<g>
				<path fill="#1797A6" d="M10.382,92.68c-0.657,0-1.301-0.323-1.684-0.917c-19.469-30.229-0.201-61.102-0.004-61.409
					c0.594-0.931,1.83-1.204,2.76-0.609c0.931,0.593,1.205,1.829,0.612,2.761c-0.183,0.287-18.062,29.056-0.005,57.092
					c0.598,0.929,0.33,2.166-0.599,2.765C11.128,92.577,10.753,92.68,10.382,92.68z"/>
			</g>
		</g>
	</g>
	<g>
		<path fill="#1797A6" d="M59.505,97.186L59.505,97.186c-3.061,0-4.686-3.544-4.86-3.948c-0.146-0.335-0.196-0.704-0.146-1.066
			l3.188-23.229H40.312c-1.836,0-2.603-1.089-2.848-1.557c-0.938-1.796,0.295-4.09,1.155-5.346
			c2.006-3.479,17.87-30.933,21.552-34.949c1.319-1.438,2.715-2.167,4.148-2.167c3.23,0,4.7,3.559,4.857,3.964
			c0.122,0.316,0.162,0.657,0.116,0.993l-3.021,22.062h13.54c1.449,0,2.699,0.505,3.612,1.459c1.624,1.696,1.564,4.183,1.553,4.461
			c-0.014,0.313-0.101,0.618-0.254,0.892c-1.887,3.361-18.518,32.942-21.559,36.49C62.061,96.532,60.829,97.186,59.505,97.186z
			 M58.547,92.091c0.32,0.538,0.738,1.003,0.957,1.089c0.068-0.028,0.284-0.143,0.624-0.539c2.08-2.427,13.485-22.273,20.829-35.348
			c-0.053-0.402-0.189-0.888-0.426-1.131c-0.06-0.06-0.215-0.22-0.719-0.22H63.979c-0.578,0-1.127-0.25-1.507-0.686
			s-0.553-1.014-0.475-1.586l3.253-23.745c-0.309-0.547-0.738-1.002-0.931-1.002c-0.14,0-0.568,0.182-1.2,0.87
			c-2.886,3.148-16.191,25.837-21.074,34.313c-0.028,0.05-0.06,0.098-0.092,0.144c-0.145,0.21-0.289,0.452-0.416,0.69l18.441,0.001
			c0.578,0,1.128,0.25,1.507,0.686c0.38,0.436,0.553,1.014,0.475,1.586L58.547,92.091z"/>
	</g>
</g>
</svg>
